<svg version="1.1" xmlns="http://www.w3.org/2000/svg" xmlns:xlink="http://www.w3.org/1999/xlink" width="17.33334" height="80.34118" viewBox="0,0,17.33334,80.34118"><g transform="translate(-231.5,-92.65882)"><g data-paper-data="{&quot;isPaintingLayer&quot;:true}" fill="#ffffff" fill-rule="nonzero" stroke-width="0" stroke-linecap="butt" stroke-linejoin="miter" stroke-miterlimit="10" stroke-dasharray="" stroke-dashoffset="0" style="mix-blend-mode: normal"><path d="M245.20833,92.65882v75.00785h-10.41667v-75.00785z" data-paper-data="{&quot;index&quot;:null}" stroke="#000000"/><path d="M236.5,163c2.76142,0 5,2.23858 5,5c0,2.76142 -2.23858,5 -5,5c-2.76142,0 -5,-2.23858 -5,-5c0,-2.76142 2.23858,-5 5,-5z" data-paper-data="{&quot;index&quot;:null}" stroke="none"/><path d="M243.83334,163c2.76143,0 5,2.23857 5,5c0,2.76143 -2.23857,5 -5,5c-2.76143,0 -5,-2.23857 -5,-5c0,-2.76143 2.23857,-5 5,-5z" data-paper-data="{&quot;index&quot;:null}" stroke="none"/></g></g></svg>