<svg version="1.1" xmlns="http://www.w3.org/2000/svg" xmlns:xlink="http://www.w3.org/1999/xlink" width="17.66184" height="96.93058" viewBox="0,0,17.66184,96.93058"><g transform="translate(-231.5,-76.3321)"><g data-paper-data="{&quot;isPaintingLayer&quot;:true}" fill="#ffffff" fill-rule="nonzero" stroke="#000000" stroke-width="0" stroke-linecap="butt" stroke-linejoin="miter" stroke-miterlimit="10" stroke-dasharray="" stroke-dashoffset="0" style="mix-blend-mode: normal"><path d="M245.20833,76.3321v91.38556h-10.41667v-91.38556z" data-paper-data="{&quot;index&quot;:null}"/><path d="M236.5,163.051c2.76142,0 5,2.23858 5,5c0,2.76142 -2.23858,5 -5,5c-2.76142,0 -5,-2.23858 -5,-5c0,-2.76142 2.23858,-5 5,-5z" data-paper-data="{&quot;index&quot;:null}"/><path d="M244.16184,163.26268c2.76143,0 5,2.23857 5,5c0,2.76143 -2.23857,5 -5,5c-2.76143,0 -5,-2.23857 -5,-5c0,-2.76143 2.23857,-5 5,-5z" data-paper-data="{&quot;index&quot;:null}"/></g></g></svg>