<svg version="1.1" xmlns="http://www.w3.org/2000/svg" xmlns:xlink="http://www.w3.org/1999/xlink" width="17.33334" height="185.33334" viewBox="0,0,17.33334,185.33334"><g transform="translate(-231.83333,-83)"><g data-paper-data="{&quot;isPaintingLayer&quot;:true}" fill="#ffffff" fill-rule="nonzero" stroke-width="0" stroke-linecap="butt" stroke-linejoin="miter" stroke-miterlimit="10" stroke-dasharray="" stroke-dashoffset="0" style="mix-blend-mode: normal"><path d="M245.20833,83v73.66667h-10.41667v-73.66667z" data-paper-data="{&quot;index&quot;:null}" stroke="#000000"/><path d="M236.83333,152.66667c2.76142,0 5,2.23858 5,5c0,2.76142 -2.23858,5 -5,5c-2.76142,0 -5,-2.23858 -5,-5c0,-2.76142 2.23858,-5 5,-5z" data-paper-data="{&quot;index&quot;:null}" stroke="none"/><path d="M244.16667,152.66667c2.76143,0 5,2.23857 5,5c0,2.76143 -2.23857,5 -5,5c-2.76143,0 -5,-2.23857 -5,-5c0,-2.76143 2.23857,-5 5,-5z" data-paper-data="{&quot;index&quot;:null}" stroke="none"/><path d="M234.79166,268.33334v-65.33334h10.41667v65.33334z" stroke="#000000"/><path d="M231.83333,202.33334c0,-2.76142 2.23858,-5 5,-5c2.76142,0 5,2.23858 5,5c0,2.76142 -2.23858,5 -5,5c-2.76142,0 -5,-2.23858 -5,-5z" stroke="none"/><path d="M239.16667,202.33334c0,-2.76143 2.23857,-5 5,-5c2.76143,0 5,2.23857 5,5c0,2.76143 -2.23857,5 -5,5c-2.76143,0 -5,-2.23857 -5,-5z" stroke="none"/></g></g></svg>