<svg version="1.1" xmlns="http://www.w3.org/2000/svg" xmlns:xlink="http://www.w3.org/1999/xlink" width="41.59496" height="17.50527" viewBox="0,0,41.59496,17.50527"><g transform="translate(-219.20252,-171.24737)"><g data-paper-data="{&quot;isPaintingLayer&quot;:true}" fill="#ff8a00" fill-rule="nonzero" stroke-width="0" stroke-linecap="butt" stroke-linejoin="miter" stroke-miterlimit="10" stroke-dasharray="" stroke-dashoffset="0" style="mix-blend-mode: normal"><path d="M223.31024,175.59745l32.14311,-0.04326l0.01129,8.38725l-32.14311,0.04326z" stroke="#000000"/><path d="M255.78088,171.24737c2.76142,-0.00372 5.00301,2.23185 5.00672,4.99327c0.00372,2.76142 -2.23185,5.00301 -4.99327,5.00672c-2.76142,0.00372 -5.00301,-2.23185 -5.00672,-4.99327c-0.00372,-2.76142 2.23185,-5.00301 4.99327,-5.00672z" stroke="none"/><path d="M255.79075,178.58071c2.76143,-0.00372 5.00301,2.23184 5.00672,4.99327c0.00372,2.76143 -2.23184,5.00301 -4.99327,5.00672c-2.76143,0.00372 -5.00301,-2.23184 -5.00672,-4.99327c-0.00372,-2.76143 2.23184,-5.00301 4.99327,-5.00672z" stroke="none"/><path d="M224.19579,171.4193c2.76142,-0.00372 5.00301,2.23185 5.00672,4.99327c0.00372,2.76142 -2.23185,5.00301 -4.99327,5.00672c-2.76142,0.00372 -5.00301,-2.23185 -5.00672,-4.99327c-0.00372,-2.76142 2.23185,-5.00301 4.99327,-5.00672z" stroke="none"/><path d="M224.20566,178.75264c2.76143,-0.00372 5.00301,2.23184 5.00672,4.99327c0.00372,2.76143 -2.23184,5.00301 -4.99327,5.00672c-2.76143,0.00372 -5.00301,-2.23184 -5.00672,-4.99327c-0.00372,-2.76143 2.23184,-5.00301 4.99327,-5.00672z" stroke="none"/></g></g></svg>