<svg version="1.1" xmlns="http://www.w3.org/2000/svg" xmlns:xlink="http://www.w3.org/1999/xlink" width="47.37049" height="97.33266" viewBox="0,0,47.37049,97.33266"><g transform="translate(-183.31475,-131.33367)"><g data-paper-data="{&quot;isPaintingLayer&quot;:true}" fill="#ffffff" fill-rule="nonzero" stroke-width="0" stroke-linecap="butt" stroke-linejoin="miter" stroke-miterlimit="10" stroke-dasharray="" stroke-dashoffset="0" style="mix-blend-mode: normal"><path d="M184.68879,175.10707l40.66338,0.5172l-0.13248,10.41583l-40.66338,-0.5172z" stroke="#000000"/><path d="M225.72734,172.33712c2.7612,0.03512 4.97113,2.30199 4.93601,5.06319c-0.03512,2.7612 -2.30199,4.97113 -5.06319,4.93601c-2.7612,-0.03512 -4.97113,-2.30199 -4.93601,-5.06319c0.03512,-2.7612 2.30199,-4.97113 5.06319,-4.93601z" stroke="none"/><path d="M225.63407,179.66987c2.76121,0.03512 4.97113,2.30198 4.93601,5.06319c-0.03512,2.76121 -2.30198,4.97113 -5.06319,4.93601c-2.76121,-0.03512 -4.97113,-2.30198 -4.93601,-5.06319c0.03512,-2.76121 2.30198,-4.97113 5.06319,-4.93601z" stroke="none"/><path d="M183.44723,194.09282l40.66338,0.5172l-0.13248,10.41583l-40.66338,-0.5172z" stroke="#000000"/><path d="M224.48578,191.32287c2.7612,0.03512 4.97113,2.30199 4.93601,5.06319c-0.03512,2.7612 -2.30199,4.97113 -5.06319,4.93601c-2.7612,-0.03512 -4.97113,-2.30199 -4.93601,-5.06319c0.03512,-2.7612 2.30199,-4.97113 5.06319,-4.93601z" stroke="none"/><path d="M224.39251,198.65561c2.76121,0.03512 4.97113,2.30198 4.93601,5.06319c-0.03512,2.76121 -2.30198,4.97113 -5.06319,4.93601c-2.76121,-0.03512 -4.97113,-2.30198 -4.93601,-5.06319c0.03512,-2.76121 2.30198,-4.97113 5.06319,-4.93601z" stroke="none"/><path d="M184.19279,214.10392l40.66338,0.5172l-0.13248,10.41583l-40.66338,-0.5172z" stroke="#000000"/><path d="M225.23133,211.33397c2.7612,0.03512 4.97113,2.30199 4.93601,5.06319c-0.03512,2.7612 -2.30199,4.97113 -5.06319,4.93601c-2.7612,-0.03512 -4.97113,-2.30199 -4.93601,-5.06319c0.03512,-2.7612 2.30199,-4.97113 5.06319,-4.93601z" stroke="none"/><path d="M225.13807,218.66671c2.76121,0.03512 4.97113,2.30198 4.93601,5.06319c-0.03512,2.76121 -2.30198,4.97113 -5.06319,4.93601c-2.76121,-0.03512 -4.97113,-2.30198 -4.93601,-5.06319c0.03512,-2.76121 2.30198,-4.97113 5.06319,-4.93601z" stroke="none"/><path d="M184.44319,155.10233l40.66338,0.5172l-0.13248,10.41583l-40.66338,-0.5172z" stroke="#000000"/><path d="M225.48174,152.33238c2.7612,0.03512 4.97113,2.30199 4.93601,5.06319c-0.03512,2.7612 -2.30199,4.97113 -5.06319,4.93601c-2.7612,-0.03512 -4.97113,-2.30199 -4.93601,-5.06319c0.03512,-2.7612 2.30199,-4.97113 5.06319,-4.93601z" stroke="none"/><path d="M225.38848,159.66513c2.76121,0.03512 4.97113,2.30198 4.93601,5.06319c-0.03512,2.76121 -2.30198,4.97113 -5.06319,4.93601c-2.76121,-0.03512 -4.97113,-2.30198 -4.93601,-5.06319c0.03512,-2.76121 2.30198,-4.97113 5.06319,-4.93601z" stroke="none"/><path d="M184.71027,134.10403l40.66338,0.5172l-0.13248,10.41583l-40.66338,-0.5172z" stroke="#000000"/><path d="M225.74882,131.33408c2.7612,0.03512 4.97113,2.30199 4.93601,5.06319c-0.03512,2.7612 -2.30199,4.97113 -5.06319,4.93601c-2.7612,-0.03512 -4.97113,-2.30199 -4.93601,-5.06319c0.03512,-2.7612 2.30199,-4.97113 5.06319,-4.93601z" stroke="none"/><path d="M225.65556,138.66682c2.76121,0.03512 4.97113,2.30198 4.93601,5.06319c-0.03512,2.76121 -2.30198,4.97113 -5.06319,4.93601c-2.76121,-0.03512 -4.97113,-2.30198 -4.93601,-5.06319c0.03512,-2.76121 2.30198,-4.97113 5.06319,-4.93601z" stroke="none"/></g></g></svg>